<svg width="95" height="43" viewBox="0 0 95 43" fill="none" xmlns="http://www.w3.org/2000/svg">
    <path d="M64.9217 16.5776V26.2098C64.9217 26.847 65.3209 27.7376 65.8075 28.1878L80.0906 41.3937C81.0647 42.2954 82.6619 42.2954 83.6349 41.3937L94.2695 31.5609C95.2437 30.6612 95.2437 29.1859 94.2684 28.2849L79.9875 15.079C79.501 14.6292 78.5363 14.2599 77.8486 14.2599H67.4283C66.05 14.2599 64.9217 15.3032 64.9217 16.5776ZM74.9479 21.2128C74.9479 22.4928 73.8245 23.5304 72.4413 23.5304C71.0558 23.5304 69.9346 22.4928 69.9346 21.2128C69.9346 19.9329 71.0558 18.8949 72.4413 18.8949C73.8245 18.8948 74.9479 19.9329 74.9479 21.2128Z" fill="#EF4B24"/>
    <path d="M79.5724 23.8425C79.286 24.0772 79.0886 24.3912 79.0044 24.7458C78.9203 25.1004 78.9532 25.48 79.0991 25.8377C79.0413 25.7809 78.9803 25.7269 78.9165 25.6761C78.7009 25.5173 78.4354 25.4352 78.1743 25.4467C77.9133 25.4581 77.6763 25.5622 77.512 25.7377C77.3478 25.9132 77.2685 26.1467 77.2906 26.3905C77.3127 26.6344 77.4343 26.8701 77.6307 27.0493L83.0047 32.018C83.1754 32.2002 83.2969 32.4154 83.3576 32.6433C83.4183 32.8712 83.4161 33.1041 83.3514 33.32C83.2866 33.5359 83.1613 33.7275 82.9875 33.8767C82.8136 34.0259 82.597 34.1277 82.3581 34.1724C82.2659 34.1908 82.1708 34.1994 82.0744 34.1979C81.8717 34.198 81.6671 34.1587 81.4738 34.0826C81.2805 34.0066 81.1027 33.8954 80.9518 33.7563C80.8155 33.6555 80.6849 33.5479 80.5608 33.4342L78.2312 31.2803C78.1331 31.1852 78.0175 31.1071 77.8909 31.0506C77.7643 30.9941 77.6293 30.9602 77.4935 30.9509C77.3576 30.9416 77.2237 30.9571 77.0993 30.9964C76.9749 31.0358 76.8625 31.0982 76.7685 31.1802C76.6745 31.2622 76.6007 31.3622 76.5514 31.4743C76.502 31.5865 76.4781 31.7087 76.481 31.834C76.4838 31.9593 76.5134 32.0851 76.5681 32.2044C76.6227 32.3237 76.7013 32.4341 76.7994 32.5292L79.3711 34.907C80.8114 36.2387 82.6709 36.6837 84.0486 35.4099C84.3358 35.1751 84.5338 34.8606 84.6179 34.5054C84.702 34.1502 84.6686 33.77 84.5218 33.4118C84.5798 33.4684 84.6407 33.5224 84.7044 33.5734C84.9201 33.7324 85.1857 33.8145 85.4469 33.8029C85.7081 33.7914 85.9451 33.6871 86.1094 33.5114C86.2736 33.3358 86.3526 33.102 86.3303 32.858C86.3079 32.614 86.1858 32.3783 85.9891 32.1992L80.6162 27.2315C80.4452 27.0494 80.3236 26.8342 80.2628 26.6062C80.202 26.3783 80.2041 26.1453 80.2689 25.9293C80.3337 25.7134 80.459 25.5217 80.633 25.3726C80.807 25.2234 81.0238 25.1217 81.2627 25.0772C81.3546 25.0573 81.4499 25.0487 81.5464 25.0516C81.7492 25.051 81.9539 25.0901 82.1472 25.1662C82.3406 25.2424 82.5182 25.354 82.6686 25.4937C82.806 25.5933 82.9367 25.7009 83.0596 25.8158L85.2782 27.8671C85.4766 28.0581 85.7416 28.1756 86.0152 28.1937C86.2889 28.2119 86.5488 28.1293 86.7382 27.964C86.9275 27.7987 87.0308 27.5642 87.0254 27.3119C87.0201 27.0596 86.9065 26.8099 86.7095 26.6177L84.2488 24.3425C82.8049 23.0101 80.9492 22.5696 79.5724 23.8425Z"
          fill="white"/>
    <path d="M74.2615 28.7571C74.0193 28.9535 73.8809 29.2386 73.8766 29.5497C73.8724 29.8609 74.0026 30.1727 74.2387 30.4166L74.2435 30.4211C74.4803 30.6638 74.803 30.8186 75.141 30.8517C75.4789 30.8849 75.8045 30.7935 76.0465 30.5977L76.0494 30.595C76.2919 30.3976 76.4301 30.1114 76.4335 29.7993C76.437 29.4871 76.3054 29.1747 76.0679 28.9306C75.8303 28.6866 75.5061 28.5309 75.1666 28.4979C74.8272 28.4649 74.5003 28.5572 74.2578 28.7546L74.2615 28.7571Z" fill="white"/>
    <path d="M89.4444 30.4307C89.6869 30.2343 89.8255 29.9491 89.8297 29.6377C89.834 29.3263 89.7036 29.0143 89.4671 28.7703L89.4634 28.7668C89.2271 28.5229 88.9042 28.3668 88.5657 28.333C88.2271 28.2991 87.9007 28.3903 87.6582 28.5864L87.6509 28.5931C87.5308 28.6908 87.4351 28.8114 87.3692 28.9479C87.3033 29.0844 87.2685 29.2343 87.2668 29.3888C87.2651 29.5434 87.2965 29.6996 87.3592 29.8487C87.422 29.9977 87.5148 30.1366 87.6325 30.2575C87.7501 30.3783 87.8902 30.4787 88.0449 30.553C88.1995 30.6272 88.3656 30.6738 88.5337 30.6902C88.7017 30.7065 88.8685 30.6922 89.0245 30.6482C89.1804 30.6042 89.3225 30.5312 89.4425 30.4335L89.4444 30.4307Z" fill="white"/>
    <path d="M3.53958 29.0572C20.6756 30.4531 38.2717 33.5691 55.1637 30.6775C59.7676 29.8894 62.9828 28.4198 66.7529 25.8312C67.8888 25.0513 71.1606 22.3715 71.6872 21.5802" stroke="white" stroke-width="4" stroke-linecap="round"/>
    <path d="M13.7686 10.4474H8.75977V24.07H5.39062V10.4474H0.449219V7.71844H13.7686V10.4474ZM21.5737 14.9621C21.132 14.9022 20.7427 14.8723 20.4058 14.8723C19.1779 14.8723 18.373 15.2878 17.9912 16.1188V24.07H14.7456V11.9186H17.8115L17.9014 13.3674C18.5527 12.2518 19.4549 11.694 20.6079 11.694C20.9673 11.694 21.3042 11.7427 21.6187 11.84L21.5737 14.9621ZM29.8506 24.07C29.7008 23.778 29.5923 23.4149 29.5249 22.9807C28.7388 23.8566 27.7168 24.2946 26.459 24.2946C25.2686 24.2946 24.2803 23.9502 23.4941 23.2614C22.7155 22.5726 22.3262 21.7041 22.3262 20.6559C22.3262 19.3682 22.8016 18.3799 23.7524 17.6911C24.7108 17.0023 26.0921 16.6542 27.8965 16.6467H29.3901V15.9504C29.3901 15.3889 29.2441 14.9396 28.9521 14.6027C28.6676 14.2658 28.2147 14.0974 27.5933 14.0974C27.0467 14.0974 26.6162 14.2284 26.3018 14.4904C25.9948 14.7525 25.8413 15.1118 25.8413 15.5685H22.5957C22.5957 14.8648 22.8128 14.2134 23.2471 13.6144C23.6813 13.0155 24.2952 12.5475 25.0889 12.2106C25.8825 11.8662 26.7734 11.694 27.7617 11.694C29.2591 11.694 30.4458 12.0721 31.3218 12.8283C32.2052 13.577 32.647 14.6327 32.647 15.9953V21.2624C32.6545 22.4154 32.8154 23.2876 33.1299 23.8791V24.07H29.8506ZM27.1665 21.8127C27.6457 21.8127 28.0874 21.7079 28.4917 21.4982C28.896 21.2811 29.1955 20.9929 29.3901 20.6335V18.5446H28.1772C26.5526 18.5446 25.6878 19.1061 25.583 20.2292L25.5718 20.4201C25.5718 20.8244 25.714 21.1576 25.9985 21.4196C26.283 21.6817 26.6724 21.8127 27.1665 21.8127ZM34.6348 17.9045C34.6348 16.0103 35.0578 14.5016 35.9038 13.3786C36.7573 12.2556 37.9215 11.694 39.3965 11.694C40.5794 11.694 41.5565 12.1358 42.3276 13.0192V6.82001H45.5845V24.07H42.6533L42.4961 22.7785C41.6875 23.7892 40.6468 24.2946 39.374 24.2946C37.944 24.2946 36.7948 23.7331 35.9263 22.61C35.0653 21.4795 34.6348 19.911 34.6348 17.9045ZM37.8804 18.1403C37.8804 19.2783 38.0788 20.1506 38.4756 20.757C38.8724 21.3635 39.4489 21.6667 40.2051 21.6667C41.2083 21.6667 41.9159 21.2437 42.3276 20.3976V15.6022C41.9233 14.7562 41.2233 14.3332 40.2275 14.3332C38.6628 14.3332 37.8804 15.6022 37.8804 18.1403ZM53.6929 24.2946C51.911 24.2946 50.4585 23.7481 49.3354 22.655C48.2199 21.5619 47.6621 20.1057 47.6621 18.2863V17.9719C47.6621 16.7515 47.8979 15.6621 48.3696 14.7038C48.8413 13.738 49.5076 12.9968 50.3687 12.4802C51.2371 11.9561 52.2254 11.694 53.3335 11.694C54.9956 11.694 56.3021 12.2181 57.2529 13.2663C58.2113 14.3145 58.6904 15.8006 58.6904 17.7248V19.05H50.9526C51.0575 19.8436 51.3719 20.48 51.896 20.9592C52.4276 21.4383 53.0977 21.6779 53.9062 21.6779C55.1566 21.6779 56.1336 21.225 56.8374 20.319L58.4321 22.1047C57.9455 22.7935 57.2866 23.3325 56.4556 23.7219C55.6245 24.1037 54.7036 24.2946 53.6929 24.2946ZM53.3223 14.322C52.6784 14.322 52.1543 14.5391 51.75 14.9733C51.3532 15.4076 51.0986 16.029 50.9863 16.8376H55.501V16.5793C55.486 15.8605 55.2913 15.3065 54.917 14.9172C54.5426 14.5204 54.0111 14.322 53.3223 14.322Z"
          fill="#F8F7FC"/>
</svg>
